<?xml version="1.0" standalone="no"?>
<!DOCTYPE svg PUBLIC "-//W3C//DTD SVG 20010904//EN"
 "http://www.w3.org/TR/2001/REC-SVG-20010904/DTD/svg10.dtd">
<svg version="1.0" xmlns="http://www.w3.org/2000/svg"
 width="807.000000pt" height="708.000000pt" viewBox="0 0 807.000000 708.000000"
 preserveAspectRatio="xMidYMid meet">

<g transform="translate(0.000000,708.000000) scale(0.100000,-0.100000)"
fill="#000000" stroke="none">
<path d="M0 3540 l0 -3540 4035 0 4035 0 0 3540 0 3540 -4035 0 -4035 0 0
-3540z m7390 2026 c0 -2 -8 -10 -17 -17 -16 -13 -17 -12 -4 4 13 16 21 21 21
13z m-50 -39 c0 -2 -10 -12 -22 -23 l-23 -19 19 23 c18 21 26 27 26 19z m-60
-51 c0 -2 -8 -10 -17 -17 -16 -13 -17 -12 -4 4 13 16 21 21 21 13z m-50 -40
c0 -2 -8 -10 -17 -17 -16 -13 -17 -12 -4 4 13 16 21 21 21 13z m-50 -39 c0 -2
-10 -12 -22 -23 l-23 -19 19 23 c18 21 26 27 26 19z m-60 -50 c0 -2 -10 -12
-22 -23 l-23 -19 19 23 c18 21 26 27 26 19z m-50 -40 c0 -2 -10 -12 -22 -23
l-23 -19 19 23 c18 21 26 27 26 19z m-60 -51 c0 -2 -8 -10 -17 -17 -16 -13
-17 -12 -4 4 13 16 21 21 21 13z m-40 -29 c0 -2 -10 -12 -22 -23 l-23 -19 19
23 c18 21 26 27 26 19z m-50 -40 c0 -2 -10 -12 -22 -23 l-23 -19 19 23 c18 21
26 27 26 19z m-50 -41 c0 -2 -19 -19 -42 -36 l-43 -32 40 36 c40 36 45 39 45
32z m-120 -97 c-54 -46 -359 -274 -510 -380 -847 -596 -1604 -907 -2405 -988
-213 -22 -669 -34 -1000 -26 -182 4 -321 11 -310 16 11 4 225 8 475 8 491 1
705 10 955 41 742 91 1450 389 2283 961 157 108 432 310 507 373 17 14 32 25
35 25 3 0 -11 -13 -30 -30z m-6641 -1994 c74 -37 159 -69 270 -101 8 -3 11 -7
8 -10 -15 -16 -245 69 -327 121 -75 47 -58 44 49 -10z"/>
</g>
</svg>
